<?xml version="1.0" standalone="no"?>
<!DOCTYPE svg PUBLIC "-//W3C//DTD SVG 20010904//EN"
 "http://www.w3.org/TR/2001/REC-SVG-20010904/DTD/svg10.dtd">
<svg version="1.0" xmlns="http://www.w3.org/2000/svg"
 width="700.000000pt" height="700.000000pt" viewBox="0 0 700.000000 700.000000"
 preserveAspectRatio="xMidYMid meet">
<metadata>
Created by potrace 1.14, written by Peter Selinger 2001-2017
</metadata>
<g transform="translate(0.000000,700.000000) scale(0.100000,-0.100000)"
fill="#000000" stroke="none">
<path d="M3080 6413 c-488 -51 -945 -251 -1315 -576 -410 -359 -674 -832 -766
-1372 -27 -157 -36 -450 -19 -623 l12 -127 -28 -20 c-99 -71 -155 -145 -180
-237 -39 -148 6 -266 116 -305 l47 -17 -40 -50 c-87 -111 -112 -215 -60 -256
34 -27 80 -22 195 21 l79 29 9 -23 c5 -12 18 -44 29 -71 26 -61 26 -66 -1 -66
-40 0 -122 -45 -160 -88 -57 -64 -75 -159 -41 -229 23 -50 80 -87 189 -123
121 -41 131 -53 132 -162 2 -97 8 -130 33 -180 41 -81 137 -112 258 -85 l74
17 76 -78 c113 -115 234 -191 402 -250 445 -157 1082 -113 1797 123 108 36
200 65 204 65 4 0 8 -8 8 -17 0 -10 13 -41 30 -69 159 -278 587 -183 607 134
3 57 0 73 -19 107 -13 22 -41 49 -62 61 l-38 22 88 48 c565 306 973 641 1179
969 138 220 192 460 151 665 -10 46 -22 93 -28 103 -8 15 -5 25 14 46 66 71
108 172 108 257 0 54 -25 129 -57 172 -15 20 -19 32 -11 32 7 0 30 5 51 11 93
25 79 143 -30 260 -25 27 -67 62 -94 80 l-49 31 6 52 c12 102 -52 271 -137
361 -98 103 -247 145 -421 116 l-47 -8 -17 46 c-71 187 -340 510 -589 707
-245 194 -543 345 -835 423 -230 61 -392 82 -635 79 -99 0 -196 -3 -215 -5z
m425 -93 c427 -39 820 -190 1159 -444 219 -165 521 -512 592 -682 41 -97 37
-210 -11 -304 -93 -183 -406 -518 -688 -733 -480 -369 -1126 -659 -1742 -782
-264 -53 -439 -68 -710 -62 -248 6 -363 20 -554 67 -343 86 -433 163 -468 402
-19 126 -21 448 -4 568 64 453 230 838 507 1170 78 94 236 248 331 323 447
353 1030 528 1588 477z m2139 -1254 c27 -8 65 -27 87 -42 74 -51 138 -179 147
-292 4 -61 4 -63 -31 -96 -51 -47 -142 -78 -412 -136 -272 -59 -337 -80 -382
-126 -28 -27 -33 -39 -33 -81 0 -26 7 -73 15 -103 45 -167 -21 -369 -140 -430
-43 -22 -61 -25 -145 -24 -52 0 -144 9 -204 18 -179 30 -246 12 -276 -72 -13
-38 -12 -49 8 -134 31 -135 35 -175 22 -252 -21 -130 -92 -230 -198 -279 -37
-17 -65 -22 -132 -22 -96 1 -113 6 -371 105 -206 80 -276 96 -354 80 -65 -14
-117 -49 -181 -127 -82 -97 -134 -142 -210 -180 -62 -30 -86 -36 -162 -41
-160 -9 -261 36 -412 183 -92 89 -135 111 -198 100 -54 -9 -77 -26 -225 -172
-164 -160 -211 -187 -332 -187 -87 0 -135 17 -156 56 -15 27 -5 96 25 185 36
105 39 142 19 183 -30 58 -52 63 -226 51 -258 -17 -317 8 -317 134 0 78 32
146 93 203 26 23 48 42 51 42 2 0 17 -24 34 -52 71 -126 190 -201 419 -263
435 -119 916 -124 1413 -13 571 127 1044 327 1555 660 312 203 657 538 857
833 58 85 88 166 88 239 0 54 0 55 33 59 77 9 187 6 231 -7z m322 -534 c49
-36 130 -125 137 -151 6 -23 1 -24 -133 -41 -244 -32 -498 -108 -745 -224
l-70 -32 -21 105 c-19 92 -20 108 -8 122 20 22 123 51 334 95 204 42 335 82
405 123 28 17 53 30 56 30 3 1 24 -12 45 -27z m30 -334 c20 -18 43 -47 50 -65
20 -46 17 -131 -6 -181 -43 -94 -88 -134 -249 -217 -85 -44 -99 -55 -118 -95
-21 -40 -23 -58 -23 -198 0 -181 -7 -203 -76 -233 -34 -15 -83 -23 -202 -30
-343 -21 -412 -56 -612 -314 -151 -194 -227 -247 -360 -249 l-75 -1 -9 65 c-8
61 4 259 20 318 5 18 49 44 198 119 334 167 594 320 883 519 238 164 340 297
389 506 20 85 18 83 111 87 35 1 49 -5 79 -31z m-486 -212 c0 -36 -119 -137
-285 -241 -100 -63 -147 -71 -153 -26 -8 51 208 203 373 262 61 22 65 23 65 5z
m452 -476 c-1 -267 -138 -521 -430 -801 -248 -238 -592 -466 -1017 -676 l-192
-94 -51 19 c-79 30 -122 12 -144 -61 -14 -47 -21 -50 -264 -130 -775 -255
-1463 -270 -1876 -41 -67 37 -161 112 -203 163 l-25 29 62 30 c35 16 121 64
193 106 160 94 180 97 226 29 104 -156 222 -207 344 -149 62 29 111 80 164
173 55 95 86 117 176 121 87 5 186 -26 320 -98 116 -62 179 -80 280 -80 145 0
246 39 363 140 38 33 72 60 75 60 3 0 30 -24 60 -54 105 -104 220 -139 307
-94 68 35 90 75 90 162 -1 56 -8 90 -33 157 l-33 86 68 7 c155 14 243 73 397
265 59 75 127 155 149 178 80 82 161 106 407 122 88 6 175 15 193 20 64 19
121 60 149 108 26 45 28 54 33 219 3 95 8 176 13 180 4 4 44 26 90 48 l82 41
14 -40 c8 -24 13 -81 13 -145z m-1414 145 c3 -2 -3 -15 -12 -27 -9 -13 -42
-60 -74 -104 l-58 -82 -23 99 c-13 54 -20 106 -17 115 6 15 18 16 93 10 48 -3
89 -8 91 -11z m-3225 -522 c2 -5 -1 -26 -7 -47 -11 -39 -12 -40 -116 -76 -58
-20 -144 -51 -192 -68 -49 -17 -88 -29 -88 -26 0 33 108 171 155 197 17 9 89
18 217 25 15 1 29 -1 31 -5z m2052 -57 c28 -7 131 -45 231 -84 207 -81 312
-107 396 -97 79 8 148 30 193 60 l37 26 -8 -63 c-11 -90 -8 -252 6 -328 6 -35
30 -112 52 -170 49 -130 55 -192 18 -222 -19 -16 -33 -18 -65 -13 -52 8 -116
46 -153 91 -73 88 -133 97 -212 32 -172 -143 -195 -153 -350 -153 -94 0 -110
3 -155 27 -82 42 -149 111 -273 277 -64 86 -143 189 -175 229 -33 40 -58 75
-56 76 2 2 24 14 49 26 70 35 143 95 195 161 63 80 82 98 130 120 48 22 74 23
140 5z m-2102 -494 c77 -104 214 -211 326 -253 76 -28 189 -49 269 -49 132 0
547 76 858 156 98 26 189 47 200 48 16 1 38 -21 83 -82 l62 -83 -48 8 c-124
21 -229 -6 -296 -75 -19 -20 -53 -68 -75 -107 -52 -92 -99 -130 -160 -130 -60
0 -97 26 -154 108 -56 80 -96 107 -159 107 -59 0 -74 -6 -221 -92 -219 -128
-387 -198 -476 -198 -79 0 -101 39 -111 203 l-8 121 -40 36 c-28 25 -71 46
-137 69 -124 43 -146 60 -146 113 0 58 27 97 85 124 79 37 107 33 148 -24z
m3380 -731 c42 -41 16 -152 -50 -212 -49 -46 -93 -63 -159 -62 -93 1 -166 47
-209 133 -18 35 -27 142 -13 155 4 4 28 0 54 -9 63 -21 115 -20 194 4 82 25
153 21 183 -9z"/>
</g>
</svg>
